<svg xmlns="http://www.w3.org/2000/svg" version="1.1" xmlns:xlink="http://www.w3.org/1999/xlink" xmlns:svgjs="http://svgjs.dev/svgjs" width="1500" height="1500" viewBox="0 0 1500 1500"><rect width="1500" height="1500" fill="#ffffff"></rect><g transform="matrix(0.6666666666666666,0,0,0.6666666666666666,249.39393939393938,475.0435939288898)"><svg viewBox="0 0 396 216" data-background-color="#ffffff" preserveAspectRatio="xMidYMid meet" height="818" width="1500" xmlns="http://www.w3.org/2000/svg" xmlns:xlink="http://www.w3.org/1999/xlink"><g id="tight-bounds" transform="matrix(1,0,0,1,0.2400000000000091,0.9069383460143428)"><svg viewBox="0 0 395.52 214.77413084486219" height="214.77413084486219" width="395.52"><g><svg viewBox="0 0 395.52 214.77413084486219" height="214.77413084486219" width="395.52"><g transform="matrix(1,0,0,1,0,132.73902917292364)"><svg viewBox="0 0 395.52 82.03510167193855" height="82.03510167193855" width="395.52"><g id="textblocktransform"><svg viewBox="0 0 395.52 82.03510167193855" height="82.03510167193855" width="395.52" id="textblock"><g><svg viewBox="0 0 395.52 82.03510167193855" height="82.03510167193855" width="395.52"><g transform="matrix(1,0,0,1,0,0)"><svg width="395.52" viewBox="1.75 -39.65 221.28 45.9" height="82.03510167193855" data-palette-color="#ff4136"><path d="M20.2-2.1Q23-2.05 25.05-1.18 27.1-0.3 28.95 1.4L28.95 1.4 24.95 6.25Q22.8 3.4 20.33 1.98 17.85 0.55 14.1 0.55L14.1 0.55Q8.35 0.55 5.05-3.98 1.75-8.5 1.75-17.25L1.75-17.25Q1.75-26.1 5.08-30.68 8.4-35.25 14.45-35.25L14.45-35.25Q20.5-35.25 23.83-30.75 27.15-26.25 27.15-17.3L27.15-17.3Q27.15-11.1 25.3-7.6 23.45-4.1 20.2-2.1L20.2-2.1ZM8.45-17.25Q8.45-10.1 9.95-7.13 11.45-4.15 14.45-4.15L14.45-4.15Q17.55-4.15 19.03-7.1 20.5-10.05 20.5-17.3L20.5-17.3Q20.5-24.45 19.03-27.45 17.55-30.45 14.45-30.45L14.45-30.45Q11.4-30.45 9.93-27.45 8.45-24.45 8.45-17.25L8.45-17.25ZM49.9-26.45L49.9 0 44.55 0 44.25-3.35Q43-1.3 41.45-0.28 39.9 0.75 37.85 0.75L37.85 0.75Q34.95 0.75 33.27-1.3 31.6-3.35 31.6-6.65L31.6-6.65 31.6-26.45 37.75-26.45 37.75-7Q37.75-3.9 39.85-3.9L39.85-3.9Q41.05-3.9 42-4.83 42.95-5.75 43.75-7.45L43.75-7.45 43.75-26.45 49.9-26.45ZM55.6-26.45L61.75-26.45 61.75 0 55.6 0 55.6-26.45ZM58.65-39.65Q60.3-39.65 61.32-38.6 62.35-37.55 62.35-35.9L62.35-35.9Q62.35-34.3 61.32-33.25 60.3-32.2 58.65-32.2L58.65-32.2Q57-32.2 55.97-33.25 54.95-34.3 54.95-35.9L54.95-35.9Q54.95-37.55 55.97-38.6 57-39.65 58.65-39.65L58.65-39.65ZM76.94-27.15Q79.09-27.15 80.84-26.43 82.59-25.7 84.19-24.15L84.19-24.15 81.54-20.65Q80.44-21.55 79.47-21.98 78.49-22.4 77.34-22.4L77.34-22.4Q75.09-22.4 73.94-20.28 72.79-18.15 72.79-13.1L72.79-13.1Q72.79-8.2 73.97-6.2 75.14-4.2 77.34-4.2L77.34-4.2Q78.44-4.2 79.34-4.6 80.24-5 81.44-5.85L81.44-5.85 84.19-2.3Q80.99 0.75 77.04 0.75L77.04 0.75Q71.94 0.75 69.12-2.73 66.29-6.2 66.29-13L66.29-13Q66.29-17.4 67.59-20.6 68.89-23.8 71.32-25.48 73.74-27.15 76.94-27.15L76.94-27.15ZM87.24-37.05L93.39-37.7 93.39 0 87.24 0 87.24-37.05ZM100.74-26.45L106.74-26.45 99.74-14.75 107.34 0 100.74 0 93.64-14.45 100.74-26.45ZM117.29-34.55L138.84-34.55 138.14-29.55 131.04-29.55 131.04 0 124.69 0 124.69-29.55 117.29-29.55 117.29-34.55ZM158.63-6.4Q158.63-5.1 158.98-4.48 159.33-3.85 160.13-3.45L160.13-3.45 158.88 0.65Q156.83 0.4 155.61-0.45 154.38-1.3 153.78-3.05L153.78-3.05Q151.48 0.75 147.33 0.75L147.33 0.75Q144.03 0.75 142.08-1.48 140.13-3.7 140.13-7.4L140.13-7.4Q140.13-11.7 142.81-13.95 145.48-16.2 150.58-16.2L150.58-16.2 152.63-16.2 152.63-18.05Q152.63-20.55 151.76-21.58 150.88-22.6 148.93-22.6L148.93-22.6Q146.58-22.6 143.08-21.3L143.08-21.3 141.68-25.3Q143.68-26.2 145.83-26.68 147.98-27.15 149.93-27.15L149.93-27.15Q158.63-27.15 158.63-18.35L158.63-18.35 158.63-6.4ZM148.98-3.7Q151.38-3.7 152.63-7L152.63-7 152.63-12.55 151.18-12.55Q148.63-12.55 147.46-11.4 146.28-10.25 146.28-7.85L146.28-7.85Q146.28-5.8 146.98-4.75 147.68-3.7 148.98-3.7L148.98-3.7ZM171.78-27.15Q176.48-27.15 179.73-24.05L179.73-24.05 177.38-20.7Q175.98-21.7 174.73-22.2 173.48-22.7 172.18-22.7L172.18-22.7Q170.73-22.7 169.91-21.93 169.08-21.15 169.08-19.8L169.08-19.8Q169.08-18.45 170.01-17.63 170.93-16.8 173.73-15.7L173.73-15.7Q177.18-14.35 178.83-12.5 180.48-10.65 180.48-7.55L180.48-7.55Q180.48-3.7 177.78-1.48 175.08 0.75 170.93 0.75L170.93 0.75Q168.23 0.75 165.96-0.23 163.68-1.2 161.98-2.95L161.98-2.95 164.98-6.25Q167.78-3.8 170.68-3.8L170.68-3.8Q172.33-3.8 173.28-4.67 174.23-5.55 174.23-7.1L174.23-7.1Q174.23-8.25 173.83-8.97 173.43-9.7 172.43-10.33 171.43-10.95 169.43-11.7L169.43-11.7Q165.98-13.05 164.51-14.85 163.03-16.65 163.03-19.45L163.03-19.45Q163.03-22.8 165.41-24.98 167.78-27.15 171.78-27.15L171.78-27.15ZM184.33-37.05L190.48-37.7 190.48 0 184.33 0 184.33-37.05ZM197.83-26.45L203.83-26.45 196.83-14.75 204.43 0 197.83 0 190.73-14.45 197.83-26.45ZM214.33-27.15Q219.03-27.15 222.28-24.05L222.28-24.05 219.93-20.7Q218.53-21.7 217.28-22.2 216.03-22.7 214.73-22.7L214.73-22.7Q213.28-22.7 212.45-21.93 211.63-21.15 211.63-19.8L211.63-19.8Q211.63-18.45 212.55-17.63 213.48-16.8 216.28-15.7L216.28-15.7Q219.73-14.35 221.38-12.5 223.03-10.65 223.03-7.55L223.03-7.55Q223.03-3.7 220.33-1.48 217.63 0.75 213.48 0.75L213.48 0.75Q210.78 0.75 208.5-0.23 206.23-1.2 204.53-2.95L204.53-2.95 207.53-6.25Q210.33-3.8 213.23-3.8L213.23-3.8Q214.88-3.8 215.83-4.67 216.78-5.55 216.78-7.1L216.78-7.1Q216.78-8.25 216.38-8.97 215.98-9.7 214.98-10.33 213.98-10.95 211.98-11.7L211.98-11.7Q208.53-13.05 207.05-14.85 205.58-16.65 205.58-19.45L205.58-19.45Q205.58-22.8 207.95-24.98 210.33-27.15 214.33-27.15L214.33-27.15Z" opacity="1" transform="matrix(1,0,0,1,0,0)" fill="#ff4136" class="wordmark-text-0" data-fill-palette-color="primary" id="text-0"></path></svg></g></svg></g></svg></g></svg></g><g transform="matrix(1,0,0,1,127.05385168582715,0)"><svg viewBox="0 0 141.41229662834567 113.37251051061908" height="113.37251051061908" width="141.41229662834567"><g><svg xmlns="http://www.w3.org/2000/svg" xmlns:xlink="http://www.w3.org/1999/xlink" version="1.1" x="0" y="0" viewBox="1.85 11.519 96.15 77.085" enable-background="new 0 0 100 100" xml:space="preserve" height="113.37251051061908" width="141.41229662834567" class="icon-icon-0" data-fill-palette-color="accent" id="icon-0"><g fill="#ff4136" data-fill-palette-color="accent"><path d="M64.757 18.264H62.347C62.216 18.264 62.108 18.364 62.108 18.486V22.057C62.108 23.382 63.192 24.044 64.516 24.044H64.998C66.322 24.044 67.406 23.381 67.406 22.057V18.486C67.406 18.364 67.298 18.264 67.167 18.264z" fill="#ff4136" data-fill-palette-color="accent"></path><path d="M59.217 17.299H70.779A1.933 1.933 0 0 0 72.708 15.373V13.446C72.708 12.386 71.84 11.519 70.779 11.519H59.217A1.934 1.934 0 0 0 57.288 13.446V15.373C57.288 16.433 58.156 17.299 59.217 17.299" fill="#ff4136" data-fill-palette-color="accent"></path><path d="M69.078 22.407C69.078 23.503 67.889 25.49 64.757 25.49S60.436 23.322 60.436 22.407C44.12 24.526 31.515 38.467 31.515 55.362 31.515 73.72 46.399 88.604 64.757 88.604 83.117 88.604 98 73.72 98 55.361 98 38.467 85.396 24.526 69.078 22.407M64.757 81.858C50.122 81.858 38.26 69.996 38.26 55.361S50.122 28.862 64.757 28.862 91.254 40.725 91.254 55.361 79.392 81.858 64.757 81.858" fill="#ff4136" data-fill-palette-color="accent"></path><path d="M65.721 52.549V34.162H64.277V52.549A3.373 3.373 0 0 0 64.999 59.215 3.373 3.373 0 0 0 65.721 52.549" fill="#ff4136" data-fill-palette-color="accent"></path><path d="M67.778 50.677S68.641 50.935 69.213 51.507C69.785 52.078 70.162 53.061 70.162 53.061L75.946 47.278 73.564 44.894z" fill="#ff4136" data-fill-palette-color="accent"></path><path d="M1.85 54.321A2.417 2.417 0 0 0 4.259 56.73H24.878A2.417 2.417 0 0 0 27.287 54.321 2.42 2.42 0 0 0 24.878 51.911H4.259A2.417 2.417 0 0 0 1.85 54.321" fill="#ff4136" data-fill-palette-color="accent"></path><path d="M16.303 30.213A2.416 2.416 0 0 0 18.712 32.622H33.614A2.416 2.416 0 0 0 36.023 30.213 2.416 2.416 0 0 0 33.614 27.804H18.712A2.416 2.416 0 0 0 16.303 30.213" fill="#ff4136" data-fill-palette-color="accent"></path><path d="M16.303 78.389A2.415 2.415 0 0 0 18.712 80.798H33.614A2.415 2.415 0 0 0 36.023 78.389 2.416 2.416 0 0 0 33.614 75.981H18.712A2.415 2.415 0 0 0 16.303 78.389" fill="#ff4136" data-fill-palette-color="accent"></path><path d="M7.15 66.586A2.415 2.415 0 0 0 9.558 68.994H27.095A2.416 2.416 0 0 0 29.503 66.586 2.416 2.416 0 0 0 27.095 64.177H9.559A2.415 2.415 0 0 0 7.15 66.586" fill="#ff4136" data-fill-palette-color="accent"></path><path d="M7.15 42.111A2.415 2.415 0 0 0 9.558 44.52H27.095A2.416 2.416 0 0 0 29.503 42.111 2.416 2.416 0 0 0 27.095 39.702H9.559A2.417 2.417 0 0 0 7.15 42.111" fill="#ff4136" data-fill-palette-color="accent"></path></g></svg></g></svg></g><g></g></svg></g><defs></defs></svg><rect width="395.52" height="214.77413084486219" fill="none" stroke="none" visibility="hidden"></rect></g></svg></g></svg>